<?xml version="1.0" encoding="UTF-8"?>
<svg id="CN_LOGO" data-name="CN LOGO" xmlns="http://www.w3.org/2000/svg" viewBox="0 0 410.75 130.85">
  <defs>
    <style>
      .cls-1 {
        fill: #231815;
      }
    </style>
  </defs>
  <path class="cls-1" d="M5.88,118.21c.18,1.67.6,3.32,1.25,4.93.79,1.36,1.82,2.34,3.09,2.93.16-.02.3,0,.43.07.13.07.27.13.44.19.89.06,1.74.07,2.54.03.8-.04,1.62-.23,2.47-.57,1.31-.54,2.6-1.11,3.86-1.68,1.27-.58,2.5-1.29,3.69-2.15,1.95-1.34,3.83-2.7,5.65-4.11,1.82-1.4,3.61-2.88,5.38-4.44,1.03-.91,2.05-1.85,3.08-2.81,1.02-.96,2.14-1.78,3.35-2.47.15-.1.28-.19.39-.28.11-.09.24-.19.39-.28.99-1.23,2.07-2.29,3.22-3.18,1.15-.89,2.28-1.83,3.38-2.84.37-.28.72-.56,1.06-.84.33-.28.68-.6,1.04-.96.85-1.06,1.77-2.04,2.76-2.95.99-.91,1.96-1.82,2.91-2.73,1.1-1,2.16-2.02,3.17-3.06,1.01-1.03,2.02-2.13,3.03-3.28.5-.54,1.01-1.05,1.52-1.55.51-.5,1.02-.97,1.54-1.43.44-.37.84-.37,1.21,0,.44.36.61.78.5,1.27.03.32-.06.61-.27.87.02.16,0,.3-.07.43-.07.13-.13.27-.19.44-.13.33-.29.67-.49,1.02-.2.34-.45.69-.73,1.04-.77,1.13-1.53,2.24-2.3,3.32-.77,1.09-1.58,2.16-2.43,3.22-.77,1.05-1.61,2.06-2.51,3.04-.9.98-1.82,1.97-2.76,2.95-1.25,1.1-2.44,2.24-3.56,3.4-1.12,1.17-2.31,2.3-3.56,3.4-.6.47-1.16.99-1.7,1.57-.54.58-1.11,1.11-1.7,1.57-1.82,1.81-3.67,3.49-5.55,5.06-1.88,1.57-3.79,3.14-5.71,4.72-.89.74-1.78,1.42-2.68,2.04-.9.62-1.8,1.26-2.69,1.92-1.74,1.07-3.51,2.01-5.31,2.8-1.81.8-3.73,1.39-5.78,1.77-.87.17-1.71.24-2.51.21-.81-.03-1.66-.08-2.55-.15-.17-.06-.37-.1-.62-.12-.24-.01-.49-.09-.75-.22-2-.67-3.86-1.44-5.56-2.3-2.13-1.06-3.57-2.92-4.34-5.57-.4-1.48-.69-3.02-.86-4.61-.05-.48-.06-.94-.03-1.39.03-.45.06-.95.08-1.52.56-3.76,1.23-7.44,2.02-11.02.78-3.58,1.78-7.21,3-10.88.43-1.25.83-2.52,1.22-3.81.38-1.29.71-2.59.97-3.91.19-.5.42-.93.71-1.28.49-.7.87-1.46,1.14-2.29.27-.83.52-1.66.76-2.5.47-1.58,1.04-3.07,1.69-4.47.65-1.4,1.31-2.81,1.96-4.25,1.4-2.72,2.84-5.38,4.34-7.95,1.49-2.57,3.11-5.12,4.85-7.64.21-.27.41-.53.58-.79.17-.26.33-.52.46-.77.47-.85.92-1.69,1.36-2.5.44-.81.93-1.61,1.49-2.39.48-.78.99-1.49,1.52-2.16.53-.66.99-1.41,1.39-2.26.21-.34.56-.82,1.05-1.44.64-.79,1.28-1.58,1.92-2.38.64-.79,1.23-1.62,1.78-2.49.55-.86,1.16-1.69,1.84-2.49.68-.8,1.29-1.63,1.84-2.49.49-.69,1.24-1.18,2.26-1.45.64-.07,1.26-.11,1.86-.14.6-.02,1.21-.11,1.84-.26,1.19-.13,2.41-.02,3.66.33,1.08.37,2.17.41,3.27.13l1.31-.14c.41.12.75.2.99.26.25.06.54.14.87.27.49.11.89.41,1.18.9.29.49.4,1.06.3,1.72-.21.26-.28.39-.2.38-.11.49-.24.79-.39.89-.97,1.47-1.83,2.97-2.59,4.5-.76,1.53-1.54,3.1-2.33,4.72-.33.68-.63,1.4-.92,2.15-.28.75-.58,1.51-.9,2.27-.54,1.67-1.09,3.31-1.64,4.94-.55,1.63-1.01,3.35-1.38,5.16-.28,1.16-.61,2.34-1.01,3.55-.39,1.21-.72,2.47-.98,3.79-.15.9-.33,1.85-.54,2.83-.22.99-.36,1.93-.42,2.82-.13,1.06-.3,2.08-.51,3.07-.22.99-.47,1.98-.77,2.98-.32.76-.73,1.41-1.24,1.94-.07.09-.23.14-.46.17-.16.02-.34-.16-.54-.54-.37-1.17-.57-2.27-.6-3.32.06-.89.1-1.84.12-2.85.01-1.01.09-1.96.24-2.86.14-.98.25-1.96.35-2.93.1-.98.22-1.91.36-2.81.49-2.14.94-4.31,1.36-6.48.41-2.17.94-4.34,1.59-6.51.05-.25.11-.49.16-.74.05-.25.11-.49.16-.74.09-.65.2-1.33.33-2.03.13-.7.23-1.41.31-2.15.12-.41.19-.81.24-1.17.04-.37.12-.76.24-1.17.32-.76.64-1.5.97-2.22.32-.72.56-1.49.72-2.31-.08,0-.12-.03-.13-.11,0-.08-.03-.12-.07-.11-.04,0-.06-.03-.07-.11-.18-.14-.31-.21-.38-.2-.16.02-.31.08-.46.17-.6.39-1.14.81-1.61,1.26-.48.45-1,.95-1.59,1.5-1.31,1.27-2.6,2.61-3.85,4.03-1.26,1.42-2.49,2.84-3.71,4.26-.92,1.23-1.79,2.45-2.62,3.66-.83,1.22-1.71,2.44-2.62,3.66-1.95,2.79-3.76,5.64-5.42,8.55-1.66,2.91-3.25,5.9-4.77,8.96-.53,1.1-1.03,2.18-1.52,3.24-.49,1.06-1,2.1-1.54,3.12-.52,1.18-1,2.3-1.45,3.36-.45,1.05-.89,2.17-1.33,3.34-.87,2.43-1.65,4.85-2.36,7.25-.71,2.41-1.37,4.85-1.99,7.33-.45,1.82-.84,3.61-1.17,5.38-.33,1.77-.6,3.59-.8,5.46-.08,1.46-.05,2.94.12,4.45Z"/>
  <path class="cls-1" d="M81.12,75.98c.03.24.01.52-.03.85.07.64.46.92,1.18.84l1.19-.13c.62-.23,1.47-.4,2.54-.51s1.92-.29,2.54-.51l1.67-.18c.18.14.27.29.29.45.37.44.37.8,0,1.09-.05.25-.14.4-.25.45-.11.05-.24.17-.39.34-.28.35-.51.54-.66.55-.85.33-1.84.64-2.98.92-1.14.28-2.09.59-2.86.91-1.21.69-2.42,1.1-3.61,1.23-.15.1-.28.19-.39.28-.11.09-.24.19-.39.28-.14.18-.23.33-.25.45-.03.12-.08.23-.15.32-.2.34-.34.62-.39.83-.06.21-.16.4-.3.58-.68,1.93-1.75,3.73-3.22,5.42-1.47,1.69-2.82,3.12-4.06,4.3-.51.54-1.27.94-2.28,1.21l-.83.09c-.24.03-.53-.02-.86-.15-.98-.14-1.74-.46-2.28-.96-.54-.5-.97-1.18-1.3-2.03-.1-.15-.15-.27-.16-.35-.23-.62-.25-1.22-.07-1.8.06-.25.13-.46.23-.63.1-.17.14-.38.12-.62.25-.67.4-1.17.44-1.5.2-1.15.4-2.09.6-2.84.2-.75.48-1.7.84-2.87.18-.58.36-1.16.54-1.75.18-.58.4-1.17.66-1.76.26-.59.54-1.14.85-1.66.31-.51.63-1.03.98-1.55.33-.68.62-1.31.88-1.91.26-.59.55-1.22.88-1.9.27-.51.67-.84,1.22-.98.28-.35.7-.56,1.26-.62.86-.25,1.83-.52,2.93-.8,1.1-.28,2-.13,2.7.43.18.14.34.22.51.25.16.02.33.11.51.25.28.37.52.71.71,1.01.19.3.43.64.71,1.01.2.38.36.74.48,1.09.12.35.16.77.13,1.25l.14,1.31ZM74.73,81.73c-.03-.32-.1-.51-.18-.58-.45-.43-.82-.88-1.11-1.33-.29-.45-.58-.9-.87-1.35-.1-.15-.31-.29-.65-.41-.09-.07-.29-.09-.61-.06-.16.02-.35.16-.56.42-.34.6-.67,1.28-.99,2.04-.71,1.69-1.23,3.19-1.57,4.51-.34,1.33-.66,2.89-.94,4.69l.04.36c-.06.17-.07.33,0,.48.06.16.16.22.32.21.26.13.45.11.6-.06,1.6-.82,2.92-2.04,3.95-3.68,1.03-1.64,1.87-3.18,2.52-4.62.06-.17.08-.37.05-.61ZM77.67,73.09c-.02-.16-.11-.31-.29-.45-.32.03-.47.09-.46.17-1.02,1-1.57,2.22-1.66,3.68-.06.17-.07.31-.02.42.05.11.09.25.1.41,0,.08.11.27.3.57.18.14.36.2.56.18.2-.02.37-.12.51-.3.21-.26.38-.52.52-.78.27-.51.41-1.09.42-1.73,0-.64.02-1.29.03-1.94l-.03-.24Z"/>
  <path class="cls-1" d="M84.17,88.68c.83-2.75,1.58-5.5,2.25-8.27.67-2.77.93-5.55.79-8.35.52-.38.95-.67,1.3-.86.34-.2.69-.28,1.06-.23.37.04.79.22,1.26.53.47.31,1.06.75,1.77,1.32.52-.38.92-.76,1.2-1.16.28-.39.55-.84.82-1.36,1.03-.91,2.04-1.79,3.04-2.62,1-.83,2.15-1.48,3.47-1.94,1.1-.28,2.14-.45,3.14-.52,1-.07,1.96.09,2.89.47.83.24,1.29.75,1.37,1.54-.23.83-.59,1.27-1.06,1.32-.4.04-.76.08-1.07.12-.32.03-.69,0-1.1-.12-.95.1-1.88.3-2.77.6-.89.3-1.69.93-2.39,1.89-2.01,2.31-3.88,4.72-5.62,7.24-1.74,2.52-3.09,5.32-4.05,8.4-.11.5-.24.93-.4,1.31-.16.38-.38.83-.64,1.34-.3,1-.9,1.38-1.81,1.16-.65-.09-1.25-.23-1.79-.41-.54-.18-1.1-.65-1.66-1.39Z"/>
  <path class="cls-1" d="M134.54,73.38c-.13.33-.24.61-.33.82-.1.21-.17.44-.23.69-.33.68-.68,1.34-1.05,1.98-.37.64-.73,1.27-1.07,1.87-.64.79-1.09,1.49-1.35,2.08-.42.61-.84,1.16-1.27,1.64-.43.49-.9.96-1.42,1.42-.23.11-.49.33-.77.68-.58.63-1.2,1.2-1.87,1.71-.67.52-1.34,1.01-2.01,1.48l-2.39,1.34c-1.6.82-3.2,1.31-4.79,1.48l-.72.08c-.8.08-1.67-.18-2.62-.81-.18-.14-.33-.22-.45-.25-.12-.03-.24-.11-.33-.27-.34-.2-.55-.66-.63-1.38.14-.9.38-1.69.71-2.37.2-.42.37-.68.52-.78,1.28-1.59,2.75-3.19,4.43-4.82,1.7-1.39,3.42-2.62,5.15-3.69.98-.59,1.93-1.13,2.84-1.63.91-.5,1.78-.99,2.62-1.49l1.79-1.28c.29-.27.52-.56.69-.86.17-.3.19-.68.06-1.15-.07-.64-.48-1.08-1.23-1.32-.42-.12-.94-.14-1.58-.07-1.73.43-3.26,1.15-4.59,2.18-2.01,1.5-3.88,3.17-5.62,5.01-1.73,1.84-3.25,3.87-4.54,6.1-.87,1.62-1.66,3.25-2.37,4.9-.71,1.64-1.33,3.3-1.88,4.97l-1.65,4.88-.86,3.23c-.17.66-.34,1.34-.5,2.04-.17.7-.37,1.39-.62,2.06-.54,1.67-.93,3.36-1.15,5.07-.23.83-.43,1.66-.58,2.48-.15.82-.35,1.61-.59,2.36-.12.33-.19.64-.2.93,0,.28-.08.59-.2.93-.22.91-.43,1.78-.63,2.6-.19.83-.44,1.66-.76,2.5l-.51.9c-.15.1-.34.18-.58.24-.23.06-.43.07-.6,0-.24.03-.38-.12-.41-.44-.35-1.01-.39-2.17-.13-3.49.04-1.13.16-2.23.37-3.3-.03-.24-.03-.5-.02-.78.01-.28,0-.58-.04-.9.07-.81.17-1.61.29-2.38.12-.78.25-1.61.39-2.52.48-2.23,1.03-4.41,1.65-6.57.61-2.16,1.25-4.32,1.9-6.48l3.13-10.23c.49-1.42.97-2.8,1.43-4.14.46-1.33.89-2.71,1.31-4.12l.56-1.51c.14-.9.37-1.79.68-2.67.31-.88.65-1.78,1.04-2.71.12-.33.25-.69.37-1.07.12-.37.2-.72.25-1.05.11-.49.15-.9.11-1.22-.12-.39-.14-.77-.06-1.14.08-.37.18-.76.3-1.18.13-.25.39-.52.76-.8,1.08-.44,2.19-.56,3.34-.36.41.12.76.32,1.03.61.27.29.39.64.35,1.05l-.54,1.75c-.39.85-.74,1.71-1.05,2.59-.31.88-.62,1.7-.94,2.45-.05.25-.06.61,0,1.09,0,.08.1.19.28.33.1.15.22.14.36-.04.23-.1.46-.23.68-.38.23-.15.41-.3.55-.48,1.53-1.53,3.2-2.83,5.01-3.92l1.7-1.03c.99-.51,1.98-.83,2.97-.98.99-.15,2.05-.2,3.18-.16,1.38.09,2.6.65,3.68,1.66.18.14.33.27.46.37.13.11.29.27.48.49.64.74.94,1.61.88,2.62-.05,1.01-.24,1.86-.57,2.54ZM126.85,78.19l-.4-.32c-.42-.12-.8,0-1.17.37l-5.05,3.56c-.59.47-1.18,1.01-1.76,1.64-.58.63-1.03,1.28-1.36,1.96-.28.35-.45.65-.51.9v.12c.21.38.47.55.79.52.79-.16,1.47-.4,2.04-.7.57-.3,1.11-.68,1.63-1.14,1.02-1,1.96-1.96,2.83-2.9.86-.94,1.68-1.93,2.46-2.98l.52-.78-.03-.24Z"/>
  <path class="cls-1" d="M145.3,24.07c.46.52.78,1.04.95,1.59.18.54.1,1.08-.25,1.6-.09.65-.27,1.28-.52,1.87-.5,1.34-1.09,2.63-1.76,3.87-.67,1.24-1.35,2.46-2.02,3.66-1,1.96-2.65,3.06-4.96,3.31-.25-.05-.45-.07-.61-.06-.42-.12-.7-.37-.87-.75-.16-.38-.25-.66-.27-.82.53-1.02,1.04-1.96,1.51-2.82.47-.85.85-1.82,1.14-2.9.73-1.45,1.38-2.88,1.95-4.31.57-1.43.84-2.99.83-4.67-.19-.22-.15-.43.11-.62.26-.19.53-.13.8.16.33.13.65.21.93.26.29.05.6.14.93.26.48-.05.86-.03,1.15.06.29.09.6.2.94.32Z"/>
  <path class="cls-1" d="M162.93,75.88c-.64.07-1.31.2-2.01.4s-1.29.32-1.77.37c-.64.07-1.24.05-1.82-.05-.57-.1-1.2-.27-1.87-.52-1.85-.77-2.99-1.99-3.41-3.68-.42-1.68-.25-3.49.5-5.42.39-.85,1.14-1.71,2.26-2.6,1.11-.88,2.33-1.68,3.67-2.39,1.33-.7,2.68-1.27,4.04-1.7,1.36-.43,2.52-.65,3.49-.68.72-.08,1.31.22,1.79.89.21.46.21.84,0,1.15-.21.3-.47.47-.79.51-.71.16-1.58.47-2.61.95-1.04.47-2.04,1.02-3.02,1.65-.98.63-1.89,1.31-2.74,2.04-.85.73-1.47,1.45-1.88,2.13-.34.6-.43,1.25-.27,1.96.16.71.45,1.16.87,1.35l4.18-.45c1.19-.13,2.6.04,4.22.51,1.62.47,2.76,1.19,3.43,2.17.59.98.72,2.2.39,3.64-.33,1.44-.95,3-1.85,4.66-.91,1.67-2,3.33-3.26,5-1.27,1.67-2.62,3.16-4.04,4.48-1.43,1.32-2.8,2.43-4.11,3.34-1.31.91-2.4,1.4-3.28,1.5-.79.09-1.44.06-1.94-.09-.5-.15-.68-.39-.56-.72,1.69-1.47,3.15-2.69,4.37-3.67,1.22-.98,2.55-2.3,3.98-3.99.49-.7,1.24-1.78,2.24-3.26,1.01-1.47,1.86-2.93,2.55-4.38.69-1.44,1.08-2.69,1.17-3.75.09-1.05-.54-1.51-1.9-1.37Z"/>
  <path class="cls-1" d="M222.08,37.79c-.21.27-.46.75-.75,1.47-.28.72-.57,1.45-.85,2.2-.28.75-.52,1.49-.73,2.19-.21.71-.33,1.22-.38,1.55-2.22,6.27-4.55,12.3-6.99,18.07-2.44,5.77-4.96,11.9-7.56,18.37-1.15,3.5-2.52,7.03-4.11,10.58-1.59,3.55-3.12,7.09-4.59,10.63-.34.6-.71,1.22-1.13,1.87-.41.65-.99,1.25-1.74,1.82-.97.67-1.72,1.19-2.25,1.57-.52.38-1.25.29-2.2-.25.61-1.84,1.27-3.52,1.99-5.04.81-1.46,1.55-2.96,2.23-4.52.68-1.56,1.32-3.26,1.93-5.09.81-2.18,1.66-4.4,2.54-6.67.88-2.27,1.77-4.49,2.66-6.68.44-1.09.89-2.21,1.33-3.34.44-1.13.81-2.2,1.1-3.2,1.05-2.93,2.09-5.79,3.12-8.6,1.03-2.81,2.1-5.76,3.21-8.85,1.27-3.19,2.49-6.44,3.66-9.75,1.17-3.3,2.22-6.7,3.13-10.17.68-1.92,1.23-3.87,1.66-5.85.43-1.98.78-4.02,1.03-6.15.13-1.06.21-2.13.26-3.23.04-1.09,0-2.19-.11-3.31l2.27-.24c.76.32,1.55.56,2.37.71.82.15,1.61.39,2.37.71.36,1.09.59,2.13.7,3.12.11,1,.54,2.02,1.29,3.06l.17,1.55c.25,2.31.4,4.66.46,7.07.06,2.41.13,4.77.22,7.1.04,4.82,0,9.64-.08,14.43-.09,4.8.33,9.68,1.27,14.65.42,1.65.86,3.35,1.33,5.11.47,1.76,1.03,3.41,1.68,4.95.25.86.64,1.66,1.16,2.41.52.75,1.02,1.5,1.51,2.25.39.68,1.01,1.18,1.85,1.49.84.31,1.72.52,2.66.62.93.1,1.86.1,2.78,0,.91-.1,1.68-.3,2.29-.61.89-.74,1.82-1.4,2.8-1.99.98-.59,1.88-1.21,2.7-1.86.81-.65,1.52-1.39,2.12-2.22.59-.83.99-1.86,1.18-3.08.03-.49.16-1.12.4-1.91.24-.79.47-1.58.71-2.37.24-.79.47-1.58.71-2.37.24-.79.41-1.43.52-1.93,1.3-5.85,2.57-11.26,3.81-16.22,1.24-4.96,2.57-9.77,4-14.43,1.43-4.66,3.02-9.3,4.78-13.91,1.76-4.61,3.8-9.54,6.14-14.78.22-.18.35-.46.39-.83.04-.37.17-.64.39-.83.47-.85.86-1.58,1.15-2.18.3-.59.63-1.01,1.01-1.26.38-.24.82-.27,1.32-.08.5.19,1.19.6,2.06,1.23.09.88-.02,1.65-.35,2.33-.33.68-.66,1.36-.99,2.04-2.85,4.89-5.22,9.69-7.08,14.4-1.87,4.71-3.5,9.43-4.88,14.16-1.38,4.73-2.66,9.52-3.83,14.35-1.17,4.83-2.44,9.86-3.81,15.07-.94,3.96-1.75,7.67-2.43,11.12-.28,1.88-.68,3.78-1.2,5.68-.52,1.91-1.25,3.75-2.18,5.54-.59.47-1.02.77-1.29.92-.27.15-.78.47-1.53.95l-.47-4.41c-.94.26-1.81.54-2.63.83s-1.57.59-2.26.91c-2.75,1.34-5.13,1.72-7.12,1.13-2-.59-4.21-1.68-6.63-3.27-1.82-1.25-3.24-2.81-4.24-4.67-1-1.86-1.8-3.85-2.39-5.96s-1-4.26-1.24-6.44c-.24-2.19-.45-4.19-.65-6.03.09-3.63-.04-7.66-.39-12.09-.36-4.43-.57-8.45-.63-12.06l-.12-1.07c-.02-.16-.07-.23-.14-.22-.08,0-.17-.02-.25-.09-.08,0-.17-.02-.25-.09Z"/>
  <path class="cls-1" d="M278.1,48.07c.33.13.67.23,1,.32.33.08.58.12.74.1.45.43.6.74.46.92-.54,1.02-1.18,2.52-1.93,4.49-.75,1.97-1.42,3.88-1.98,5.7-.57,1.83-.93,3.34-1.08,4.52-.16,1.18.18,1.49,1,.92.44-.37.77-.67.99-.89.22-.22.48-.43.78-.63,1.94-2.14,3.88-4.38,5.8-6.72,1.92-2.34,3.81-4.57,5.68-6.71.42-.61.81-1.07,1.18-1.39.37-.32.87-.52,1.51-.58.3-.19.68-.21,1.14-.06.46.15,1.16.5,2.1,1.04.03.32.06.74.07,1.26.01.52-.13.88-.43,1.07-1.03.92-1.68,1.97-1.95,3.17-.27,1.2-.79,2.4-1.54,3.61-.54,1.02-.84,2.12-.91,3.3-.08,1.18.28,2.44,1.07,3.81.32-.03.7-.07,1.13-.12.44-.05.81-.17,1.11-.36,1.7-.66,3.34-1.34,4.91-2.04,1.57-.69,3.12-1.44,4.65-2.25.91-.5,1.84-1.02,2.79-1.57.95-.54,2.02-.88,3.21-1.01-.11.5-.43,1.25-.96,2.28-.54,1.02-.95,1.63-1.25,1.82-1.47,1.29-3.1,2.44-4.88,3.48-1.78,1.04-3.5,2.09-5.15,3.15-.76.4-1.47.72-2.13.95-.66.23-1.43.4-2.3.49-.63.15-1.32.1-2.07-.14-.75-.24-1.43-.59-2.04-1.05-.61-.46-1.14-1.02-1.57-1.7-.43-.68-.65-1.34-.63-1.98-.07-.64-.08-1.36-.05-2.17.03-.81,0-1.69-.1-2.65-.36.36-.67.66-.93.88-.26.23-.45.51-.57.85-.83,1.22-1.75,2.46-2.74,3.73-.99,1.27-1.9,2.52-2.74,3.73-.44.37-.96.79-1.55,1.25-.59.47-1.2.81-1.82,1.04-.89.66-1.87.56-2.93-.29-.62-.5-1.12-1.03-1.5-1.59-.38-.56-.62-1.28-.71-2.16-.14-1.27-.07-2.51.21-3.7.28-1.2.55-2.37.83-3.53.59-1.99,1.23-3.88,1.93-5.64.7-1.76,1.38-3.61,2.06-5.53.13-.33.26-.59.4-.77.14-.18.4-.36.78-.57l.95-.1Z"/>
  <path class="cls-1" d="M303.89,67.99c-.03-1.04.16-1.91.57-2.59.33-.68.65-1.44.96-2.28.31-.84.63-1.6.96-2.28.12-.41.24-.77.37-1.07.13-.29.29-.65.49-1.08,0-.08.04-.37.15-.86.06-.97.25-1.94.59-2.9.34-.96.62-1.94.83-2.93.11-.49.34-.92.71-1.28.12-.41.41-.65.89-.7.46-.21.89-.34,1.29-.38.46-.21.8-.04,1.02.5.36.36.58.94.67,1.74l.06.6c.03.24.18.4.47.49.29.09.55.04.77-.14.14-.18.4-.36.78-.57.14-.18.32-.4.53-.66.21-.26.47-.49.77-.69.14-.18.33-.28.57-.3.24-.03.47-.09.7-.2.31-.11.82-.21,1.54-.29,1.1-.2,2.12.22,3.03,1.24.03.24.09.43.18.58.27.29.6.34.98.14.15-.1.3-.21.44-.35.15-.14.29-.25.45-.35l1.6-1.98c.43-.45.81-.89,1.12-1.33.32-.44.65-.87,1-1.32.12-.33.32-.62.57-.84.26-.23.5-.43.72-.62.59-.47,1.18-.95,1.77-1.46.59-.5,1.18-1.03,1.76-1.58.89-.66,1.87-.92,2.93-.8.73.08,1.25.39,1.55.92l.06.6c-.08.81-.18,1.55-.31,2.21-.13.66-.36,1.37-.68,2.12-.55,1.59-1.07,3.17-1.54,4.75-.47,1.58-1.03,3.13-1.67,4.65-.29,1.08-.59,2.16-.92,3.24-.33,1.08-.67,2.17-1.04,3.25-.31.84-.59,1.66-.82,2.46-.24.8-.5,1.67-.81,2.61,0,.08,0,.21-.02.37-.02.17-.02.33,0,.5.03.32.13.47.29.45.1.15.21.14.36-.04.16-.02.42-.17.8-.45.81-.73,1.59-1.46,2.36-2.18.77-.72,1.5-1.53,2.22-2.41.07-.08.14-.15.22-.2.07-.05.14-.15.21-.32.57-.7,1.19-1.31,1.86-1.83.67-.51,1.29-1.12,1.86-1.83.57-.7,1.18-1.37,1.84-2.01.66-.63,1.27-1.26,1.85-1.89.45-.29.86-.61,1.22-.98.36-.36.81-.65,1.35-.87l.24-.03c.33.13.43.28.29.45.02.16,0,.28-.02.36-.03.08-.08.21-.14.38.05.48-.06.93-.34,1.36-.54.94-1.17,1.81-1.89,2.62-.72.8-1.36,1.59-1.92,2.38-.59.47-1.12,1.01-1.58,1.62-.46.61-.9,1.14-1.34,1.59-.85,1.06-1.69,2.08-2.51,3.06-.82.98-1.66,2-2.51,3.07-1.04,1.56-2.15,2.85-3.33,3.86-.36.36-.76.62-1.18.79-.43.17-.87.31-1.34.45-.8.08-1.46-.12-2-.63-1.57-1.12-2.17-2.62-1.81-4.51.2-1.09.47-1.98.8-2.67.31-.86.62-1.69.94-2.5.31-.81.62-1.68.93-2.59.32-.76.62-1.54.9-2.33.28-.79.57-1.57.9-2.33.12-.41.23-.81.36-1.19s.2-.76.24-1.17c.3-.92.57-1.81.8-2.68.23-.87.49-1.76.8-2.68.21-.34.33-.68.38-1.01.06-.17.07-.45.03-.85-.02-.16-.13-.27-.34-.33-.21-.06-.39-.04-.54.06-.16.02-.31.11-.45.29-.37.36-.67.68-.92.95-.25.27-.52.58-.81.93-1.22,1.34-2.38,2.75-3.47,4.23-1.09,1.49-2.16,2.97-3.2,4.45-.34.6-.7,1.18-1.08,1.75-.38.57-.75,1.11-1.09,1.63-.28.43-.53.84-.77,1.23-.24.39-.5.8-.77,1.23-.26.59-.68,1.17-1.26,1.72-.73.74-1.6.83-2.62.28-.43-.28-.79-.59-1.07-.93-.28-.33-.52-.73-.73-1.19-.03-.32-.01-.48.07-.49.12-.41.21-.85.28-1.3.07-.45.2-.93.39-1.43.12-.33.21-1.03.26-2.08-.02-.16-.09-.27-.22-.34-.13-.07-.23-.05-.3.03-.72.08-1.17.37-1.36.87-.36.44-.67.9-.94,1.37-.27.47-.49,1.04-.66,1.7-.27.51-.52,1.02-.74,1.53-.23.51-.43,1.05-.61,1.63-.31.85-.79,1.68-1.42,2.49-.12.34-.36.55-.72.63-.35.08-.7.06-1.03-.07-.48.05-.86-.11-1.14-.49-.53-.44-.83-1.02-.91-1.75Z"/>
  <path class="cls-1" d="M374.86,44.43c.03.24-.04.41-.19.5-.05.25-.57.53-1.54.83-.97.31-2.03.62-3.16.94-1.13.32-2.18.64-3.16.94-.97.31-1.5.5-1.57.59-.36.36-.59.83-.69,1.4.03.24,0,.4-.07.49.04.4,0,.73-.14.98-.01,1.37-.21,2.7-.6,3.99-.39,1.29-.87,2.53-1.47,3.72-.72,1.53-1.62,2.93-2.69,4.21-1.07,1.28-2.22,2.51-3.47,3.69-.59.54-1.22,1.02-1.9,1.41-.68.4-1.36.83-2.03,1.3-.39.12-.95.14-1.68.06-.73-.08-1.29-.42-1.68-1.03-.61-.42-.87-.95-.78-1.61-.07-.63-.01-1.22.17-1.77.18-.54.36-1.14.53-1.81l.11-.13c.6-1.19,1.25-2.39,1.97-3.59.72-1.2,1.5-2.29,2.36-3.27.35-.44.75-.92,1.17-1.45.43-.53.81-1.05,1.16-1.57.2-.42.46-.79.79-1.11.33-.32.68-.62,1.05-.9.35-.44.64-.81.85-1.12.21-.3.45-.67.73-1.1.24-.75.05-1.37-.56-1.87-.88-.71-1.64-1.07-2.29-1.08-.25-.05-.69-.05-1.33.02-.63.15-1.31.54-2.04,1.18-.21.27-.43.51-.65.73-.22.23-.43.47-.65.73-.07.09-.32.56-.75,1.41-.43.85-.88,1.76-1.33,2.74-.46.97-.88,1.89-1.28,2.73-.39.85-.58,1.31-.58,1.39-.2.42-.44.93-.74,1.53-.3.6-.51,1.1-.62,1.51-.28,1.16-.66,2.06-1.16,2.72-.49.66-1.27.92-2.33.79-.64.07-.99-.21-1.06-.85l-.1-.95c.15-.82.31-1.6.47-2.34.16-.74.4-1.49.72-2.25.4-.77.64-1.52.72-2.25.23-.83.53-1.82.89-2.99.36-1.16.73-2.37,1.12-3.62.39-1.25.74-2.47,1.05-3.67.31-1.2.63-2.18.95-2.94-.02-.16.07-.45.27-.87.54-1.75,1.13-3.52,1.78-5.32.65-1.8,1.24-3.61,1.77-5.44.32-.76.6-1.49.85-2.2.24-.71.49-1.44.73-2.19.09-.65.26-1.34.5-2.05.24-.71.45-1.4.62-2.06.49-1.42.98-2.82,1.48-4.2.5-1.38.99-2.78,1.48-4.2.38-.93.75-1.85,1.09-2.77.34-.92.71-1.84,1.09-2.77.3-.92.53-1.85.67-2.79.14-.94.08-1.88-.18-2.82-.18-.14-.11-.31.19-.5.2-.42.47-.71.81-.87.34-.16.71-.34,1.09-.54.39-.12.77-.14,1.14-.06.37.08.72.18,1.06.31.18.14.36.4.57.78.2.38.23.7.1.96-.06.17-.08.37-.06.61-.5,1.34-.94,2.66-1.33,3.94-.39,1.29-.83,2.56-1.34,3.83-.44,1.17-.83,2.36-1.19,3.57-.35,1.21-.79,2.36-1.32,3.46-.74,2.09-1.46,4.18-2.16,6.27-.7,2.09-1.47,4.14-2.29,6.16-.43,1.25-.84,2.47-1.24,3.63-.4,1.17-.82,2.34-1.25,3.52-.38,1.01-.71,2.05-.99,3.12-.29,1.08-.49,2.19-.61,3.32-.15.1-.14.22.04.36.18.14.34.21.5.19l.48-.05c.39-.12.74-.22,1.05-.29.31-.07.66-.21,1.04-.41.47-.13.88-.22,1.24-.25.36-.04.81-.09,1.37-.15.56-.06,1.12-.08,1.68-.06.56.02,1.1.12,1.6.31.41.12.85.27,1.32.46.46.19.88.47,1.24.83.25.05.5.19.77.4.34.2.79.28,1.35.22.08,0,.62-.05,1.62-.11,1-.07,2.08-.14,3.23-.23,1.16-.08,2.23-.18,3.23-.29.99-.11,1.57-.17,1.73-.19.16-.02.26,0,.3.03.04.04.15.08.32.15ZM358.94,55.8c-.02-.16-.11-.27-.28-.33s-.29-.05-.36.04c-.61.31-1.17.77-1.66,1.38-.7.96-1.36,1.92-1.98,2.87-.62.95-1.2,1.98-1.72,3.08.02.16,0,.26-.03.31-.04.04-.04.15-.03.3l.03.24c.02.16.04.24.09.23.04,0,.06.03.07.11.09.07.25.09.49.07.38-.2.64-.41.78-.63.14-.21.35-.5.63-.85.43-.45.89-1.1,1.36-1.96.21-.27.43-.53.64-.79.21-.26.42-.57.63-.91.27-.43.5-.78.67-1.04.17-.26.32-.56.45-.89.14-.18.21-.28.21-.32,0-.04.03-.1.1-.19.06-.17.07-.29.02-.36-.05-.07-.08-.19-.1-.35Z"/>
  <path class="cls-1" d="M373.27,64.52c-.88.09-1.61.05-2.19-.13-.17-.06-.34-.12-.5-.19-.17-.06-.42-.12-.74-.16-.17-.06-.29-.13-.38-.2-.09-.07-.21-.14-.38-.2-.44-.35-.86-.67-1.25-.95-.39-.28-.73-.65-1.02-1.1-.38-.6-.47-1.36-.24-2.27.09-.65.22-1.31.39-1.97s.34-1.36.5-2.11c.06-.25.12-.54.21-.87.08-.33.19-.63.33-.88.32-.76.54-1.67.67-2.73.06-.89.31-1.56.75-2.01.29-1.08.93-2.15,1.95-3.23.43-.53.83-1.06,1.22-1.58.38-.52.8-1.01,1.23-1.46.3-.19.56-.38.78-.57.46-.21.9-.4,1.33-.56.42-.17.95-.36,1.57-.59.15-.09.33-.16.52-.18.2-.02.38-.04.54-.06.73.08,1.19.23,1.38.46.7.49,1.31.99,1.85,1.49.37.44.71.97,1.01,1.58.31.61.3,1.26-.03,1.93-.41.69-.9,1.36-1.47,2.03-.57.66-1.15,1.31-1.72,1.94-.73.72-1.45,1.46-2.17,2.22-.72.76-1.49,1.51-2.29,2.24-.51.46-1.13.69-1.86.68-.32.03-.55.1-.7.2-.45.29-.74.56-.88.82-.25.67-.36,1.17-.32,1.48-.3.92-.32,1.93-.04,3.02.17.14.31.27.4.38.09.11.27.23.52.37.65.09,1.17.08,1.56-.05,1.02-.27,1.94-.65,2.77-1.14,1.07-.52,2.04-1.06,2.9-1.64.86-.57,1.74-1.19,2.64-1.85.96-.75,1.91-1.47,2.84-2.18.93-.7,1.88-1.43,2.84-2.18.46-.21.81-.33,1.05-.35.22-.18.48-.19.78-.02.3.17.42.34.36.5-.12,1.14-.61,2.2-1.47,3.17-.82.57-1.62,1.22-2.39,1.95-.77.73-1.47,1.45-2.12,2.16-.59.47-1.21.96-1.83,1.46-.63.51-1.33.93-2.1,1.25-.53.3-1.08.58-1.66.84-.58.26-1.18.43-1.82.5-.54.22-1.08.4-1.63.54-.55.14-1.11.2-1.67.18ZM378.82,45.34c-.18-.14-.27-.27-.28-.39s-.06-.17-.14-.17l-.72.08c-.06.17-.2.38-.41.65-.71.88-1.4,1.8-2.06,2.75-.66.96-1.18,1.98-1.54,3.06.03.32.09.47.17.46l.36-.04c.35-.44.71-.86,1.07-1.26.36-.4.71-.82,1.07-1.26.59-.47,1.06-1,1.4-1.6.34-.6.64-1.19.9-1.79.14-.18.2-.34.19-.5Z"/>
  <path class="cls-1" d="M386.38,56.23c.83-2.74,1.58-5.5,2.25-8.27.67-2.77.93-5.55.79-8.35.52-.38.96-.67,1.29-.86.34-.2.7-.28,1.06-.23.37.04.79.22,1.26.53.47.31,1.07.75,1.77,1.32.52-.38.92-.76,1.2-1.16.28-.39.55-.84.82-1.36,1.03-.91,2.04-1.79,3.04-2.62,1-.83,2.15-1.48,3.47-1.94,1.1-.28,2.14-.45,3.14-.52,1-.07,1.96.09,2.89.47.83.24,1.29.75,1.37,1.54-.23.83-.59,1.27-1.07,1.32-.4.04-.76.08-1.07.12-.32.03-.69,0-1.1-.12-.96.1-1.88.3-2.77.6-.89.3-1.69.93-2.39,1.89-2.01,2.31-3.88,4.72-5.62,7.24-1.74,2.52-3.09,5.32-4.05,8.4-.11.49-.24.93-.4,1.31-.16.38-.38.83-.64,1.34-.3,1-.9,1.38-1.81,1.16-.65-.09-1.25-.23-1.79-.41-.54-.18-1.09-.65-1.66-1.39Z"/>
</svg>